<svg width="899" height="298" xmlns="http://www.w3.org/2000/svg" fill="none">
 <defs>
  <clipPath id="clip0">
   <rect id="svg_1" x="66.0833" y="74.0333" fill="white" height="133.933" width="167.417"/>
  </clipPath>
 </defs>
 <g>
  <title>Layer 1</title>
  <rect id="svg_2" fill="white" rx="8.16667" height="16.3333" width="173.95" y="222.667" x="62"/>
  <rect id="svg_3" fill="white" rx="8.16667" height="16.3333" width="173.95" y="43" x="62"/>
  <g id="svg_4" clip-path="url(#clip0)">
   <path id="svg_5" fill="white" d="m172.693,74.5676c4.353,1.6742 6.588,6.7385 5.006,11.3257l-20.04,58.1267l-20.04,58.127c-1.59,4.588 -6.387,6.948 -10.731,5.282c-4.353,-1.674 -6.588,-6.738 -5.006,-11.325l40.079,-116.2544c1.591,-4.5872 6.387,-6.9478 10.732,-5.282zm-86.4039,68.5734l29.5989,31.257c3.265,3.449 3.265,9.041 0,12.489c-0.754,0.817 -1.67,1.468 -2.688,1.913c-1.019,0.445 -2.118,0.675 -3.23,0.675c-1.111,0 -2.211,-0.23 -3.229,-0.675c-1.019,-0.445 -1.934,-1.096 -2.689,-1.913l-35.5175,-37.493c-1.5755,-1.699 -2.451,-3.931 -2.451,-6.248c0,-2.318 0.8755,-4.55 2.451,-6.249l35.5175,-37.5015c0.755,-0.8161 1.67,-1.4673 2.689,-1.9126c1.018,-0.4454 2.118,-0.6753 3.229,-0.6753c1.112,0 2.211,0.2299 3.23,0.6753c1.018,0.4453 1.934,1.0965 2.688,1.9126c3.265,3.4575 3.265,9.0575 0,12.5065l-29.5989,31.239zm127.0019,0l-29.599,-31.239c-1.575,-1.7 -2.451,-3.932 -2.451,-6.249c0,-2.318 0.876,-4.55 2.451,-6.2491c0.755,-0.8161 1.67,-1.4673 2.689,-1.9126c1.018,-0.4454 2.118,-0.6753 3.229,-0.6753c1.112,0 2.211,0.2299 3.23,0.6753c1.018,0.4453 1.934,1.0965 2.688,1.9126l35.518,37.4931c3.265,3.449 3.265,9.04 0,12.497l-35.518,37.485c-0.754,0.816 -1.67,1.467 -2.688,1.913c-1.019,0.445 -2.118,0.675 -3.23,0.675c-1.111,0 -2.211,-0.23 -3.229,-0.675c-1.019,-0.446 -1.934,-1.097 -2.689,-1.913c-1.573,-1.699 -2.447,-3.929 -2.447,-6.245c0,-2.315 0.874,-4.545 2.447,-6.244l29.599,-31.249z"/>
  </g>
  <path id="svg_7" fill="white" d="m314.55,194c5.167,0 9.183,1.433 12.05,4.3c2.9,2.833 4.35,6.9 4.35,12.2c0,5.3 -1.45,9.383 -4.35,12.25c-2.867,2.833 -6.883,4.25 -12.05,4.25l-11.65,0l0,-33l11.65,0zm0,28.45c3.5,0 6.167,-1.033 8,-3.1c1.867,-2.1 2.8,-5.05 2.8,-8.85c0,-3.8 -0.933,-6.733 -2.8,-8.8c-1.833,-2.1 -4.5,-3.15 -8,-3.15l-6.3,0l0,23.9l6.3,0zm24.336,4.55l0,-33l23.9,0l0,4.6l-18.55,0l0,9.5l14.5,0l0,4.5l-14.5,0l0,9.8l19.25,0l0,4.6l-24.6,0zm43.037,-33.5c2.967,0 5.534,0.567 7.7,1.7c2.167,1.1 4,2.733 5.5,4.9l-3.6,3.45c-1.266,-1.933 -2.7,-3.317 -4.3,-4.15c-1.566,-0.867 -3.433,-1.3 -5.6,-1.3c-2.433,0 -4.2,0.467 -5.3,1.4c-1.1,0.933 -1.65,2.067 -1.65,3.4c0,1.033 0.35,1.933 1.05,2.7c0.734,0.767 2.084,1.367 4.05,1.8l6.7,1.5c3.167,0.733 5.417,1.817 6.75,3.25c1.367,1.4 2.05,3.2 2.05,5.4c0,2.033 -0.55,3.8 -1.65,5.3c-1.1,1.467 -2.633,2.617 -4.6,3.45c-1.966,0.8 -4.25,1.2 -6.85,1.2c-3.5,0 -6.483,-0.65 -8.95,-1.95c-2.466,-1.333 -4.366,-2.983 -5.7,-4.95l3.7,-3.7c1.034,1.767 2.484,3.217 4.35,4.35c1.9,1.1 4.15,1.65 6.75,1.65c2.3,0 4.1,-0.4 5.4,-1.2c1.334,-0.833 2,-2.017 2,-3.55c0,-0.933 -0.333,-1.767 -1,-2.5c-0.633,-0.767 -1.833,-1.35 -3.6,-1.75l-7.25,-1.65c-3,-0.633 -5.216,-1.683 -6.65,-3.15c-1.433,-1.467 -2.15,-3.3 -2.15,-5.5c0,-1.867 0.517,-3.567 1.55,-5.1c1.034,-1.533 2.5,-2.75 4.4,-3.65c1.934,-0.9 4.234,-1.35 6.9,-1.35zm16.589,33.5l12.45,-33l6.4,0l12.45,33l-5.65,0l-3.1,-8.65l-13.9,0l-3.15,8.65l-5.5,0zm14.1,-23.7l-3.9,10.7l10.75,0l-3.8,-10.6l-1.5,-4.75l-0.15,0l-1.4,4.65zm36.502,-9.3c3.533,0 6.333,0.883 8.4,2.65c2.1,1.767 3.15,4.15 3.15,7.15c0,2.4 -0.65,4.383 -1.95,5.95c-1.267,1.533 -3.017,2.6 -5.25,3.2l9.15,14.05l-6.15,0l-8.4,-13.2l-7.1,0l0,13.2l-5.3,0l0,-33l13.45,0zm-0.4,15.35c4.266,0 6.4,-1.8 6.4,-5.4c0,-3.6 -2.134,-5.4 -6.4,-5.4l-7.75,0l0,10.8l7.75,0zm33.993,-15.35c3.534,0 6.334,0.883 8.4,2.65c2.1,1.767 3.15,4.15 3.15,7.15c0,2.4 -0.65,4.383 -1.95,5.95c-1.266,1.533 -3.016,2.6 -5.25,3.2l9.15,14.05l-6.15,0l-8.4,-13.2l-7.1,0l0,13.2l-5.3,0l0,-33l13.45,0zm-0.4,15.35c4.267,0 6.4,-1.8 6.4,-5.4c0,-3.6 -2.133,-5.4 -6.4,-5.4l-7.75,0l0,10.8l7.75,0zm33.951,-15.85c3.2,0 5.967,0.683 8.3,2.05c2.334,1.367 4.134,3.333 5.4,5.9c1.267,2.533 1.9,5.55 1.9,9.05c0,3.5 -0.633,6.533 -1.9,9.1c-1.266,2.533 -3.066,4.483 -5.4,5.85c-2.333,1.367 -5.1,2.05 -8.3,2.05c-3.2,0 -5.966,-0.683 -8.3,-2.05c-2.3,-1.367 -4.083,-3.317 -5.35,-5.85c-1.266,-2.567 -1.9,-5.6 -1.9,-9.1c0,-3.5 0.634,-6.517 1.9,-9.05c1.267,-2.567 3.05,-4.533 5.35,-5.9c2.334,-1.367 5.1,-2.05 8.3,-2.05zm0,4.65c-3.1,0 -5.533,1.083 -7.3,3.25c-1.766,2.133 -2.65,5.167 -2.65,9.1c0,3.933 0.884,6.983 2.65,9.15c1.767,2.133 4.2,3.2 7.3,3.2c3.134,0 5.584,-1.067 7.35,-3.2c1.767,-2.167 2.65,-5.217 2.65,-9.15c0,-3.933 -0.883,-6.967 -2.65,-9.1c-1.766,-2.167 -4.216,-3.25 -7.35,-3.25zm28.906,24.25l18.2,0l0,4.6l-23.55,0l0,-33l5.35,0l0,28.4zm29.932,0l18.2,0l0,4.6l-23.55,0l0,-33l5.35,0l0,28.4zm37.158,-28.9c3.2,0 5.967,0.683 8.3,2.05c2.334,1.367 4.134,3.333 5.4,5.9c1.267,2.533 1.9,5.55 1.9,9.05c0,3.5 -0.633,6.533 -1.9,9.1c-1.266,2.533 -3.066,4.483 -5.4,5.85c-2.333,1.367 -5.1,2.05 -8.3,2.05c-3.2,0 -5.966,-0.683 -8.3,-2.05c-2.3,-1.367 -4.083,-3.317 -5.35,-5.85c-1.266,-2.567 -1.9,-5.6 -1.9,-9.1c0,-3.5 0.634,-6.517 1.9,-9.05c1.267,-2.567 3.05,-4.533 5.35,-5.9c2.334,-1.367 5.1,-2.05 8.3,-2.05zm0,4.65c-3.1,0 -5.533,1.083 -7.3,3.25c-1.766,2.133 -2.65,5.167 -2.65,9.1c0,3.933 0.884,6.983 2.65,9.15c1.767,2.133 4.2,3.2 7.3,3.2c3.134,0 5.584,-1.067 7.35,-3.2c1.767,-2.167 2.65,-5.217 2.65,-9.15c0,-3.933 -0.883,-6.967 -2.65,-9.1c-1.766,-2.167 -4.216,-3.25 -7.35,-3.25zm44.893,28.85l-9.7,-33l5.65,0l7.4,28.35l7.2,-28.35l5.5,0l7.25,28.4l7.35,-28.4l5.45,0l-9.65,33l-6.3,0l-5.25,-19.8l-1.65,-7.6l-0.05,0l-1.65,7.6l-5.2,19.8l-6.35,0zm42.384,0l0,-33l23.9,0l0,4.6l-18.55,0l0,9.5l14.5,0l0,4.5l-14.5,0l0,9.8l19.25,0l0,4.6l-24.6,0zm31.787,0l0,-33l13,0c3.967,0 6.867,0.8 8.7,2.4c1.833,1.6 2.75,3.817 2.75,6.65c0,1.733 -0.5,3.283 -1.5,4.65c-1,1.333 -2.467,2.183 -4.4,2.55l0,0.05c2.133,0.367 3.783,1.25 4.95,2.65c1.2,1.4 1.8,3.033 1.8,4.9c0,2.833 -1.033,5.067 -3.1,6.7c-2.067,1.633 -5.067,2.45 -9,2.45l-13.2,0zm5.25,-18.8l7.35,0c4.2,0 6.3,-1.617 6.3,-4.85c0,-3.233 -2.1,-4.85 -6.3,-4.85l-7.35,0l0,9.7zm0,14.35l8.2,0c2.1,0 3.667,-0.433 4.7,-1.3c1.067,-0.867 1.6,-2.083 1.6,-3.65c0,-1.567 -0.533,-2.783 -1.6,-3.65c-1.033,-0.867 -2.6,-1.3 -4.7,-1.3l-8.2,0l0,9.9z"/>
  <text style="cursor: move;" xml:space="preserve" text-anchor="start" font-family="'Merriweather Sans'" font-size="140" stroke-width="0" id="svg_8" y="176.39999" x="294.3" fill="#ffffff">STIGMA</text>
 </g>
</svg>